<?xml version="1.0" encoding="utf-8"?>
<!-- Generator: Adobe Illustrator 24.0.2, SVG Export Plug-In . SVG Version: 6.00 Build 0)  -->
<svg version="1.1" id="Layer_1" xmlns="http://www.w3.org/2000/svg" xmlns:xlink="http://www.w3.org/1999/xlink" x="0px" y="0px"
	 viewBox="0 0 256 256" style="enable-background:new 0 0 256 256;" xml:space="preserve">
<g>
	<path d="M76.5,217.2c-9.7-7.7-20.2-15-27.3-25.4c-15-18.3-26.5-39.4-34.3-61.6c-4.8-14.4-6.4-29.9-12.5-43.8
		C-4.1,76.2,3.5,65.2,14.5,62c4.9-0.9,13.6-5.6,3.1-2.3c-9.4,6.9-10.3-6.2-0.7-7.1c6.6-0.9,9-6.2,6.7-11.1c-7-4.6,17.1-9.6,4.9-16.5
		C16,11.5,46.3,8.9,38.8,24.4C37,36.3,60,22.2,54.7,35.9c5.4,6.6,20.3,1.5,19.9,10.8c7.9,0.5,10.6,7.2,18,7.7
		c7.7,3.5,21.6,6.2,24.2,14.8c-7.6,6-25.2-12.4-26.1,4.2c2.3,24.6,1.7,50,10.7,73.5c4.3,14.2,14.6,25.4,23.9,36.4
		c8.9,10.8,21,18.5,33.4,24.9c10.8,5.1,22.5,8.5,34.3,10.6c4.8-3.7,13.2-17.3,20.7-11.5c0.4,6.4-14.8,13.5-0.7,12.8
		c8.3-2.5,14,6.4,20.8-1.6c6.3,7.4,26.1-4.7,21.6,10.5c-6,3.9-14.9,1.5-20.9,6.9c-10-5-17.9,4.5-29,3.3c-12.3,2.2-24.7,3.1-37.2,3.1
		c-20.4-1.6-41.2-2.3-60.6-9.4C96.8,229.6,86.1,223.4,76.5,217.2L76.5,217.2z M93.7,224.6c10.7,4.6,21.1,9.5,32.8,10.9
		c18.6,2.6,37.7,6.6,56.3,2.9c-8.4-3.8-17.1,1.5-25.5-2.7c-10.1,2.2-20.9-0.6-31.1-1.9c-11.6-5.2-24.2-8.7-35.1-15.5
		c-13.6-5,7,6.4,10.7,7.3c8.5,4.8-9.4-2.5-11.9-4.5c-7.1-4-8-3.2-0.7,0.9C90.7,223,92.2,223.9,93.7,224.6L93.7,224.6z M73.4,210.3
		c10.3,3.8,0-7.3-4.8-6.6c-2.1-3.6-8-5.9-3.8-7.9c-7.5,2.6-7.9-9.9-11.4-8.1c-8-2.5-3.1-11.4-12.6-16.9C40,165,31.4,160,28.7,151.3
		c-1.2-4.4-9.7-17.2-4.5-5.3c4.4,11.4,12.2,21.2,18.7,31c5,9.3,11,19,20.1,24.9C66.1,204.8,69.1,209.4,73.4,210.3L73.4,210.3z
		 M43.6,177.6C44,176,45.5,180.9,43.6,177.6L43.6,177.6z M85.8,214.9C88.1,213.8,82.5,213.6,85.8,214.9L85.8,214.9z M91.4,216.9
		C90.8,214.1,88.9,218.5,91.4,216.9L91.4,216.9z M98.4,219.8C101.8,216.7,93.3,217.8,98.4,219.8L98.4,219.8z M110.5,226.6
		C112.5,223.6,104,225.4,110.5,226.6L110.5,226.6z M87.4,210.4C92.6,207.1,80.6,210.4,87.4,210.4L87.4,210.4z M92.6,213.1
		C92.5,211.3,90.8,213.9,92.6,213.1L92.6,213.1z M119,229.5c4.2,2.7,24.7,5.9,11.9,1.1C128.7,231.1,107.1,224.5,119,229.5L119,229.5
		z M77.2,196.9C76.7,195.2,70.6,195,77.2,196.9L77.2,196.9z M89.4,204.1C92.6,201.9,82.8,202.4,89.4,204.1L89.4,204.1z M99.7,210.4
		C104.3,208.7,92.3,208.7,99.7,210.4L99.7,210.4z M72.2,191.5c5,3.8,20,0.5,7.6-2.3c-5.7-3-18.4-5.1-9.7,1.8L72.2,191.5L72.2,191.5z
		 M106.7,212.6C108.8,209.1,98,210.6,106.7,212.6L106.7,212.6z M96.2,204.3c12.1,3.4-10.2-7.7-3-1.3l1.6,0.7L96.2,204.3L96.2,204.3z
		 M117.3,216.4C128.8,216.5,106.9,214.8,117.3,216.4L117.3,216.4z M67.7,184.8C67.3,182.7,64.9,185,67.7,184.8L67.7,184.8z
		 M136.7,227.3C137.1,223.5,133,230.2,136.7,227.3L136.7,227.3z M87.4,196.9C86.7,194.8,83.8,196.8,87.4,196.9L87.4,196.9z
		 M68.8,183.5C75.4,183.1,59.8,180.6,68.8,183.5L68.8,183.5z M46.8,169.3C46,166.1,39.7,163.6,46.8,169.3L46.8,169.3z M104.5,205.9
		C103.3,204.5,104,206.2,104.5,205.9L104.5,205.9z M140.4,227.9C140.3,225.8,138.5,228.7,140.4,227.9L140.4,227.9z M101.4,202.6
		C102,199.9,95.7,201.8,101.4,202.6L101.4,202.6z M74.6,185.7C79.5,185.1,66.7,182.3,74.6,185.7L74.6,185.7z M119.9,213.8
		C127.5,210.8,112.4,212.3,119.9,213.8L119.9,213.8z M96.3,197.8c8.8,1.1-10.5-6-1.9-0.6L96.3,197.8L96.3,197.8z M127,216.7
		c8.2-4.9,5.5,11.5,14,1.4c8.3-6.1-7.2,7.5,3.1,1.1c7.4-5,18.4,2.4,25.4,4.7c5-0.2,9.8,4.3,15,1.5c9.8-2.7-19.3-3.9-11.6-8.6
		c-9,2.6-15.7-3.1-20.1-8.9c-10.1-2.3-21.8-7.5-26.8-16.5c-2.1-3.4,3,0.5-1.8-5c-6.1-5.4-9.1-11.6-13.2-18.2
		c-4.9-2.6-5.5-10.3-6-0.3c0-6.3-5.9-10.6-7.3-8.8c0-6.1,6.4-3,1.9-7.5c-1-6.3-4.1-12.9-5.1-20c-1.5-3.4-0.2-10.8-5-3
		c-1.8,8.2-0.6-10.1,2.2-4.1c3.6-6.2-1.3-5.4-1.5-4.6c2.3-5.2,1.5-12.6-0.6-9.8c1.2-5.5,2-20.3-1.9-17.7c2.3-5.8,4.4-26.4-5.7-18.5
		c-4.1,0.1-11.2,1.5-14.5,3.2c10.5,5.8-1.1,2.1-5.3,1.2c-0.6,5.4-4.8,3-10.1,3.1c8.5,1-4.1,8.7-9,5.7c-6.3,3,5.4,10.5,0.1,12.9
		c0.7,3.5-9.7-1.3-8.8,6.8c-6.1-2.6-0.8,9.6,2.2,5.5c10.4,2.8,7.3,9.2,7.6,15.3c-1.7,3.6-8.4-8.3-1.5-7.8c-5.4-8.8-6-3.2-10.5,0.9
		c-1,0.3,11.5,5.8,3.6,8.6c6.9,1.1,7.1,7.1,8.5,11c4.2,4.3,3.3-4.8,8.3,0.4c-3.2-4.7-16.7-13.1-5.8-10.4c-0.1-4.7-2-8.4,1.4-8.4
		c3.3-6-3.5,14.8,4,7.2c2.1-0.9,2.6-6,6.3,0.5c5.4,5.3,1.9,9.2-5.7,4.3c1.4,4.6,10.2,6.3,8.5,13.5c1.8,6.4,4.2,4,6.4,3.6
		c1.7,6.2,2.6,1.6,2.7-1.3c7.7,1.6,5.9,6.2,8.3,9.4c5.3,2.4-7.6-16.2,1.5-5.6c9.6,8.7,3.6,12.3-5,10.9c5.4-0.4,7.2,7.4,14,7.1
		c6.2,3,10.4,14.3-0.3,9.6c-3.7-3.3-16.8-7.5-6.1-1.1c9.9,4.6,17.8,7.3,27.3,13.1c6.8,4.9,9.8,10.5,12.4,11.6
		c-5.7,2.7-17.3-2.2-8.7-3.7c-5.4-1-11.4-3.7-6.3,3c4.4,3.6,15.5,3.3,17.5,3.7c-1.7,3.7-4.6,4,0.1,4.3
		C119.7,214.7,126.5,215.1,127,216.7L127,216.7z M116.4,186.7c-3.2-3.3-4-9.5-0.6-4.1C117.6,183.3,121.4,192.7,116.4,186.7
		L116.4,186.7z M150.9,208.7C152.9,208.5,151,210.2,150.9,208.7L150.9,208.7z M111.4,178.6C111.3,173.6,112.6,182.5,111.4,178.6
		L111.4,178.6z M108,174C104,166.3,113,176.2,108,174L108,174z M66.4,145.3C68.7,144.7,67.5,149.3,66.4,145.3L66.4,145.3z
		 M99.5,163.2C100.9,157.9,101.2,167.8,99.5,163.2L99.5,163.2z M76.1,147C74.4,144,79.5,149.8,76.1,147L76.1,147z M96.2,153.4
		c-3.8-8.4,2.7-4.6,0.8,1.4L96.2,153.4L96.2,153.4z M61.5,130.3c-1.7-2.8-4.5-10.9-3.6-13.4c0.8,4,8.6,17.4,3.8,5.5
		c-5.3-9.9,6.3,3.2,7.5,5.7c0.6,2.5-3.3-0.7-0.7,5.1C63.9,126.7,65.8,136.9,61.5,130.3L61.5,130.3z M50.8,122.9
		C51.3,116.5,53.3,127.3,50.8,122.9L50.8,122.9z M55.7,124.6C58,119.7,59.6,131.4,55.7,124.6L55.7,124.6z M44.1,115.6
		c-4-4-6.9-7.6,0.2-2.5c2.7,0.1-6-8.3,0.7-2.7C52,111.8,48.4,122.1,44.1,115.6L44.1,115.6z M50.2,115.5
		C52.5,113.2,51.4,117.7,50.2,115.5L50.2,115.5z M53.9,116.7C50.4,110.1,58.2,119.4,53.9,116.7L53.9,116.7z M46.5,109.6
		c-11.6-10.3,14.5,5.4,1.9,1.9L46.5,109.6L46.5,109.6z M79.7,128.9c-5-3-1.3-21.2,0.4-8.7c4.9-1.6-0.3,6.4,3.4,6.3
		C82.8,131.5,81.2,133.3,79.7,128.9L79.7,128.9z M91.9,136.1C92.4,130.6,93,139.8,91.9,136.1L91.9,136.1z M89.8,134
		C90.3,131.7,89.8,136.7,89.8,134L89.8,134z M48.7,106.2c-7.4-10.3,21.6,10.4,4.8,2.6C51.7,108.3,49.6,108.2,48.7,106.2L48.7,106.2z
		 M72.4,118.7C71.7,110.1,73.9,120.1,72.4,118.7L72.4,118.7z M90.3,130.2C91.7,125.3,90.4,133.5,90.3,130.2L90.3,130.2z M49.9,102.3
		c4.4-0.9,18.3,7.8,5.6,2.5C54,103.2,51,103.9,49.9,102.3L49.9,102.3z M87.9,121.2c0.5-8.8,2.6-5.3,0,1.3L87.9,121.2L87.9,121.2z
		 M53.2,99.2c1.8-2.6-4.8-11.9,0.9-3.3c2.5,2,7.2,3.3,3,4.1C63.7,105.7,55.6,101.5,53.2,99.2L53.2,99.2z M86,118.4
		C87.2,108.4,87.1,124.3,86,118.4L86,118.4z M49.4,89.9C50.8,89.3,50.1,91.7,49.4,89.9L49.4,89.9z M58,95C60.2,90.4,62,100.1,58,95
		L58,95z M82.1,108.4C82.1,106.6,82.6,111,82.1,108.4L82.1,108.4z M80.7,105.3C77.4,97.1,83.8,109.7,80.7,105.3L80.7,105.3z
		 M78.6,99.9C78.1,96.5,80.6,104.2,78.6,99.9L78.6,99.9z M82,94.5c-2.3-4,2.9-17.9,3.5-9.3c-2.4,6.7-0.7,10.4,1,1.5
		C89.6,79.6,85.8,100.5,82,94.5L82,94.5z M85.4,73.9C86.4,72.7,85.7,75.4,85.4,73.9L85.4,73.9z M79.7,187.1
		C78.3,186,79.9,187.9,79.7,187.1L79.7,187.1z M91.5,193.1c6.6,1.7,6.6-1,0.6-1.8c-3.2-3-13.3-6.1-4.3-0.4
		C88.5,192.4,90.4,192.4,91.5,193.1L91.5,193.1z M68.2,177.6c3.6,2.7,13.7,7.7,5.2,1c2.9-3.3-5.5-5.1-2.7-7.3
		c-7-4.3-5.6-3.9-0.6-3.8c-8.5-3.8,1.2-3.5,0.8-5.4c-3.3-0.6-16.2-5.8-8.6,0.4c-7.7-3.9-1.8,1.5-4.2,0.9c-7.9-2.2,7,6-1.3,4
		c4.5,3.6,12.2,9.2,1.9,3.8C57.3,173.2,66,176.1,68.2,177.6L68.2,177.6z M80.5,184.7C95.6,189.6,73.1,178.8,80.5,184.7L80.5,184.7z
		 M143.9,223.1C144.1,220.1,141.8,225.6,143.9,223.1L143.9,223.1z M150.4,225.8c3.5-3.4,0.1,5.4,5.8-0.8c0.1-4.4-0.2-7-6.4-1.7
		C148,224.3,147.2,228.4,150.4,225.8L150.4,225.8z M47,160.9C46,156.7,39.5,156.7,47,160.9L47,160.9z M54,165.5
		C51.4,161.2,44.8,161.6,54,165.5L54,165.5z M93.5,189.3c3.9,3.4,17.7,2.5,4.7,0.4C96.3,186.9,86,187.6,93.5,189.3L93.5,189.3z
		 M147.9,222.9C153.9,217.9,142.2,225.1,147.9,222.9L147.9,222.9z M160.3,231.4C160.3,229.8,157.7,232.1,160.3,231.4L160.3,231.4z
		 M160.3,229.2C166.9,222.2,153.9,229.6,160.3,229.2L160.3,229.2z M29.9,146.6c-5.6-8-3.5-11.6-8.9-18.1c-1-5-9.3-16.3-4.3-4.3
		C21.3,131.2,22.7,142,29.9,146.6L29.9,146.6z M158.2,227C170.4,219.1,153.3,223.5,158.2,227L158.2,227z M167.5,230.6
		C173.6,225.4,163.7,229.5,167.5,230.6L167.5,230.6z M45,152.1C46.7,149.5,40.5,151.7,45,152.1L45,152.1z M165.6,228.1
		c5.9-3.8-1.4-3.2-1.1,0.3L165.6,228.1L165.6,228.1z M85.9,177.9C85.7,175.3,82.8,178.1,85.9,177.9L85.9,177.9z M90.8,180.7
		C89.2,177.5,88.4,181.2,90.8,180.7L90.8,180.7z M175,230.7c7.5-5.4-4.6-1-1.6,1L175,230.7L175,230.7z M172.1,229.3
		C178.2,224.1,165.6,231.5,172.1,229.3L172.1,229.3z M186.8,239.1C190.9,236.3,181.8,238.2,186.8,239.1L186.8,239.1z M48.7,150.2
		c5.5,1.2,22,13.6,12.3,0.9c-5-1.5-2-13.7-7.1-11.5c3.4,5.7,2.8,8.1-4.4,4.5c-9-4.4-5.1,2.2-3.3,4C43.9,148.6,49.4,150.2,48.7,150.2
		L48.7,150.2z M23.6,130.4c1-4.1-9.1-22.5-4.8-9.2C20.4,123.9,20.2,129.2,23.6,130.4L23.6,130.4z M69.7,158.8
		C66.9,156.4,69.6,158.5,69.7,158.8L69.7,158.8z M76.7,160.4C76.7,156.1,69,158.7,76.7,160.4L76.7,160.4z M137.3,198.6
		C136.2,195.7,132.8,198.6,137.3,198.6L137.3,198.6z M140.3,200.8C139.8,199.1,138.6,201.1,140.3,200.8L140.3,200.8z M164.3,215.9
		C166.6,214.2,161.4,215.7,164.3,215.9L164.3,215.9z M36.2,133.6C42.8,131,29.1,131.7,36.2,133.6L36.2,133.6z M132,193.9
		C131.9,189.7,127.8,195,132,193.9L132,193.9z M33.5,127.5C37.8,126,29.6,126.5,33.5,127.5L33.5,127.5z M45.9,133.4
		C45.8,132,44.6,134,45.9,133.4L45.9,133.4z M196.2,225.6c5.5-1.1,17.9,2.8,19.9-1.4c-6.6-0.2-22.9-4.7-23.7,1.1l1.5,0.2
		L196.2,225.6L196.2,225.6z M49.8,134.4C49.9,130.1,46.4,134.3,49.8,134.4L49.8,134.4z M17.4,112C15.9,103.7,11.8,110.7,17.4,112
		L17.4,112z M25.1,113.9C25.2,111.2,18,111.5,25.1,113.9L25.1,113.9z M29.5,116.1C28.2,115,28.5,117.4,29.5,116.1L29.5,116.1z
		 M57.3,133.9C58.6,132.7,54.2,133,57.3,133.9L57.3,133.9z M26.6,111.2C25.8,104.9,17.6,110.2,26.6,111.2L26.6,111.2z M10.7,100.9
		C10.5,98,9.2,102,10.7,100.9L10.7,100.9z M13.1,99.1C12.7,95.7,11.1,99.5,13.1,99.1L13.1,99.1z M26.1,106.9c5.5-2.2-10-4.5-1.1-0.4
		L26.1,106.9L26.1,106.9z M200.3,214.5C203.9,211.3,195.9,213.5,200.3,214.5L200.3,214.5z M221.4,225.4
		C222.8,221.2,217.8,226,221.4,225.4L221.4,225.4z M27.5,100.1C28,96,23.1,100.9,27.5,100.1L27.5,100.1z M8.9,87.7
		c-1-5.7-0.9-15.7,8.7-12.3c-12.7,2.5,8.8,15.8,6.1,5.3c5.3,0.3,10.4-3.2,7.6,2c10.5-1.2,17.8-10.3,28-9c7.9-1.1,16.6-1.8,25.1-5
		c7-0.5,13.8-8.1,9.9-12.5c-9.6-0.8-19.6,0.4-30.2,2.5c-11.7,2.4-22.4,7.1-34.2,9c-11.5,1.6,2.3,4.3-1,4.9c-6,2.1,7.2,3.5-0.8,5.7
		c-4.9-0.9-10-2.6-7.9-7.8c-11,1.4-20.7,6-12,17.3L8.9,87.7L8.9,87.7z M35.5,74.1c2.6-9.5,13.9,7.8,4.2,1.3
		C38.6,74.5,36.7,73.8,35.5,74.1L35.5,74.1z M36,69.5C39.8,66.7,38,71,36,69.5L36,69.5z M40.8,69.6c0.3-4.4,10.9,2.3,1.7,1.6
		L40.8,69.6L40.8,69.6z M47.3,67C49.6,64.2,48,69.4,47.3,67L47.3,67z M48.9,65.8c3.9-4.7,22.3-3,8.9-0.5
		C54.2,62.7,51.4,67,48.9,65.8L48.9,65.8z M72.9,62.1C72.3,49.2,84.9,66.7,72.9,62.1L72.9,62.1z M79.8,62.1c2.5-6.5,9.7-2.6,1.2-1.3
		C81.1,61.5,80.7,64.2,79.8,62.1L79.8,62.1z M24.8,96.7C32.2,92.2,16.9,92.8,24.8,96.7L24.8,96.7z M30.3,98.2
		C32.9,95.5,24.6,97.1,30.3,98.2L30.3,98.2z M14.1,86.7C18.3,83.5,9,85.5,14.1,86.7L14.1,86.7z M233.8,224.2
		C233.9,220.4,230.6,225.9,233.8,224.2L233.8,224.2z M211.5,209C212.1,204.6,208.6,209.4,211.5,209L211.5,209z M240,225.7
		c5.9,0,18-1.9,5.1-1.8C243,224.2,233.2,224.1,240,225.7L240,225.7z M35.1,95.6c4.8-0.3,7.5-5.3-0.9-5c-13.1-1.4,11.6,4.5-1.7,2.8
		C30.7,94.5,35,95.9,35.1,95.6L35.1,95.6z M39.3,97.7C38.8,94.6,37.9,99.4,39.3,97.7L39.3,97.7z M44.4,84.3
		C46.5,81.7,41.5,83.6,44.4,84.3L44.4,84.3z M28.4,57.6c8.6-2.9,20.3-6.2,24.4,1.4c-4.1-5-1.7-9.9,2.2-2.6c5.5,7.3,8.3-3.3,4.7-5.8
		c4.1,5.1,8.7,7.5,2.7,0.3c6.5-7.8-13,1-17.5,0.9C42.8,52.8,22.8,56.9,28.4,57.6L28.4,57.6z M33.4,47.9c4.9-3.7,16.9,2.2,9.2-3.7
		C41.9,43.6,25.7,48.7,33.4,47.9L33.4,47.9z M51.3,48.7c5.7,0.1-2.5-7.7,4.4-4.1c-1.1-3.7-8-4.3-11.3-5.8
		C42.4,42,48.2,48.7,51.3,48.7L51.3,48.7z M36.5,32.4C38.5,29.8,33.1,33.8,36.5,32.4L36.5,32.4z M43.8,34.2c9.2-1.2-2.4-4-1.9-0.1
		L43.8,34.2L43.8,34.2z M30.2,23.5c-6.5-8.5,12.2,1.4,5.6-7.5C30.3,11.6,24.9,21.1,30.2,23.5L30.2,23.5z M113.7,68.5
		c3-5.3-12.3-7.1-2-1.9C112.6,66.9,112.4,68.9,113.7,68.5L113.7,68.5z"/>
</g>
</svg>
