<?xml version="1.0" encoding="utf-8"?>
<!-- Generator: Adobe Illustrator 24.0.2, SVG Export Plug-In . SVG Version: 6.00 Build 0)  -->
<svg version="1.1" id="Layer_1" xmlns="http://www.w3.org/2000/svg" xmlns:xlink="http://www.w3.org/1999/xlink" x="0px" y="0px"
	 viewBox="0 0 256 256" style="enable-background:new 0 0 256 256;" xml:space="preserve">
<style type="text/css">
	.st0{fill:#4DABCF;}
	.st1{fill:#4D77CF;}
</style>
<g id="Layer_1_1_">
	<polygon class="st0" points="112.4,62 75.3,43.3 34.5,63.6 72.6,82.8 	"/>
	<polygon class="st0" points="129.4,70.6 168.4,90.3 128,110.6 89.8,91.4 	"/>
	<polygon class="st0" points="181.4,43.6 221.4,63.6 185.6,81.6 146.6,61.9 	"/>
	<polygon class="st0" points="164.2,34.9 128.2,16.9 92.6,34.7 129.7,53.4 	"/>
	<polygon class="st0" points="136.1,190 136.1,239.1 179.7,217.4 179.6,168.2 	"/>
	<polygon class="st0" points="179.6,151 179.6,102.4 136.1,124 136.1,172.7 	"/>
	<polygon class="st0" points="232,141.9 232,191.3 194.8,209.8 194.7,160.7 	"/>
	<polygon class="st0" points="232,124.7 232,76.3 194.7,94.9 194.7,143.6 	"/>
	<path class="st1" d="M120.7,124l-29.4-14.8v63.8c0,0-35.9-76.5-39.3-83.3c-0.4-0.9-2.2-1.9-2.6-2.1C42.9,84.3,24,74.7,24,74.7
		v112.8l26.1,14v-59c0,0,35.5,68.3,35.9,69.1s3.9,7.9,7.7,10.5c5.1,3.4,26.8,16.5,26.8,16.5L120.7,124z"/>
</g>
</svg>
