<?xml version="1.0" encoding="utf-8"?>
<!-- Generator: Adobe Illustrator 24.0.2, SVG Export Plug-In . SVG Version: 6.00 Build 0)  -->
<svg version="1.1" id="Layer_1" xmlns="http://www.w3.org/2000/svg" xmlns:xlink="http://www.w3.org/1999/xlink" x="0px" y="0px"
	 viewBox="0 0 255 255" style="enable-background:new 0 0 255 255;" xml:space="preserve">
<style type="text/css">
	.st0{fill:#130754;}
	.st1{fill:#FFCA00;}
	.st2{fill:#E70488;}
</style>
<title>Artboard 63</title>
<g>
	<path class="st0" d="M108.7,30.3h0.5c6.5,0,11.8,5.3,11.8,11.8v26.4c0,6.5-5.3,11.8-11.8,11.8h-0.5c-6.5,0-11.8-5.3-11.8-11.8V42.1
		C96.9,35.6,102.2,30.3,108.7,30.3z"/>
	<path class="st0" d="M108.7,133.1h0.5c6.5,0,11.8,5.3,11.8,11.8v26.4c0,6.5-5.3,11.8-11.8,11.8h-0.5c-6.5,0-11.8-5.3-11.8-11.8
		v-26.4C96.9,138.3,102.2,133.1,108.7,133.1z"/>
	<path class="st1" d="M108.7,94.9h0.5c6.5,0,11.8,5.3,11.8,11.8v0c0,6.5-5.3,11.8-11.8,11.8h-0.5c-6.5,0-11.8-5.3-11.8-11.8v0
		C96.9,100.2,102.2,94.9,108.7,94.9z"/>
	<path class="st0" d="M70,71.4h0.5c6.5,0,11.8,5.3,11.8,11.8v142.7c0,6.5-5.3,11.8-11.8,11.8H70c-6.5,0-11.8-5.3-11.8-11.8V83.2
		C58.2,76.7,63.5,71.4,70,71.4z"/>
	<path class="st0" d="M146.6,174.3h0.5c6.5,0,11.8,5.3,11.8,11.8v26.4c0,6.5-5.3,11.8-11.8,11.8h-0.5c-6.5,0-11.8-5.3-11.8-11.8
		v-26.4C134.8,179.6,140.1,174.3,146.6,174.3z"/>
	<path class="st0" d="M146.6,71.5h0.5c6.5,0,11.8,5.3,11.8,11.8v26.4c0,6.5-5.3,11.8-11.8,11.8h-0.5c-6.5,0-11.8-5.3-11.8-11.8V83.3
		C134.8,76.8,140.1,71.5,146.6,71.5z"/>
	<path class="st2" d="M146.6,136.1h0.5c6.5,0,11.8,5.3,11.8,11.8v0c0,6.5-5.3,11.8-11.8,11.8h-0.5c-6.5,0-11.8-5.3-11.8-11.8v0
		C134.8,141.4,140.1,136.1,146.6,136.1z"/>
	<path class="st0" d="M184.5,17.3h0.5c6.5,0,11.8,5.3,11.8,11.8v142.7c0,6.5-5.3,11.8-11.8,11.8h-0.5c-6.5,0-11.8-5.3-11.8-11.8
		V29.1C172.7,22.6,178,17.3,184.5,17.3z"/>
</g>
</svg>
